Coordinates
version=1
nRows=6
nColumns=63
inDegrees=yes

Units are S.I. units (second, meters, Newtons, ...)
If the header above contains a line with 'inDegrees', this indicates whether rotational values are in degrees (yes) or radians (no).

endheader
time	pelvis_tilt	pelvis_list	pelvis_rotation	pelvis_tx	pelvis_ty	pelvis_tz	hip_flexion_r	hip_adduction_r	hip_rotation_r	knee_angle_r	knee_angle_r_beta	ankle_angle_r	subtalar_angle_r	mtp_angle_r	hip_flexion_l	hip_adduction_l	hip_rotation_l	knee_angle_l	knee_angle_l_beta	ankle_angle_l	subtalar_angle_l	mtp_angle_l	L5_S1_Flex_Ext	L5_S1_Lat_Bending	L5_S1_axial_rotation	L4_L5_Flex_Ext	L4_L5_Lat_Bending	L4_L5_axial_rotation	L3_L4_Flex_Ext	L3_L4_Lat_Bending	L3_L4_axial_rotation	L2_L3_Flex_Ext	L2_L3_Lat_Bending	L2_L3_axial_rotation	L1_L2_Flex_Ext	L1_L2_Lat_Bending	L1_L2_axial_rotation	L1_T12_Flex_Ext	L1_T12_Lat_Bending	L1_T12_axial_rotation	Abs_r3	Abs_r2	Abs_r1	Abs_t1	Abs_t2	neck_flexion	neck_bending	neck_rotation	arm_flex_r	arm_add_r	arm_rot_r	elbow_flex_r	pro_sup_r	wrist_flex_r	wrist_dev_r	arm_flex_l	arm_add_l	arm_rot_l	elbow_flex_l	pro_sup_l	wrist_flex_l	wrist_dev_l
      3.50847458	     -0.14371465	     -3.05914135	    113.36811966	      0.29597573	      0.61378272	      0.87013199	      1.31146141	     -4.20026530	    -12.87753794	     15.52816739	      0.27101765	     34.26534693	      8.17548009	      0.00000000	     -1.95843791	      4.20518281	     -5.15725423	      8.32306545	      0.14526490	     27.08260466	      8.35869181	      0.00000000	     -0.00114843	     -0.22853197	     -0.71425902	     -0.00213275	     -0.30394752	     -0.75890021	     -0.00188676	     -0.55565264	     -0.75890021	     -0.00131254	     -0.55565264	     -0.62497664	     -0.00106643	     -0.46602240	     -0.58033545	     -0.00065621	     -0.35399603	     -0.53569426	     -0.00820314	     -2.58519938	     -3.97249439	      0.00000000	      0.00000000	     26.26645969	      4.91097077	      4.10079089	      8.67892347	    -11.21775568	    158.29967169	      0.92677202	      7.18681278	      4.22214957	     -1.95695763	     -0.88833927	    -18.21519341	     35.68432668	     27.82474724	     87.54201320	    -11.47813803	      1.08137788
      3.52542373	      0.03896414	     -3.00761204	    113.46222750	      0.29630453	      0.61379068	      0.87120503	      1.44522933	     -3.93223135	    -12.38317519	     15.54551946	      0.27132050	     34.15516803	      7.44154595	      0.00000000	     -1.94737976	      4.01190570	     -5.01298130	      8.16765949	      0.14255255	     27.03129371	      8.39184200	      0.00000000	     -0.00095969	     -0.19491520	     -0.74001133	     -0.00178223	     -0.25923721	     -0.78626204	     -0.00157667	     -0.47391681	     -0.78626204	     -0.00109683	     -0.47391681	     -0.64750991	     -0.00089116	     -0.39747107	     -0.60125920	     -0.00054836	     -0.30192364	     -0.55500850	     -0.00685494	     -2.20491967	     -4.11572101	      0.00000000	      0.00000000	     26.00992563	      5.19543914	      5.31268488	      8.52733428	    -11.30465365	    157.04654136	      0.84413699	      8.85302249	      3.23775798	     -2.26036248	     -0.51016915	    -18.13047222	     37.25952086	     27.22465677	     87.60248501	    -12.14955827	      0.15806530
      3.54237288	      0.27324532	     -3.14183275	    113.66582107	      0.29668410	      0.61354087	      0.87282205	      1.73861377	     -3.81267400	    -12.86670571	     15.57709107	      0.27187153	     34.02534273	      7.71335552	      0.00000000	     -1.68337564	      3.78367908	     -5.64383004	      7.99918633	      0.13961214	     27.20628317	      9.81282498	      0.00000000	      0.01018211	     -0.16094596	     -0.79441369	      0.01890920	     -0.21405813	     -0.84406455	      0.01672819	     -0.39132401	     -0.84406455	      0.01163714	     -0.39132401	     -0.69511198	      0.00945511	     -0.32820100	     -0.64546113	      0.00581806	     -0.24930529	     -0.59581027	      0.07272981	     -1.82065289	     -4.41829064	      0.00000000	      0.00000000	     25.95839346	      5.57553153	      6.70917770	      8.46671411	    -11.36320057	    157.26135786	      0.76956548	      7.59562872	      2.27624070	     -1.99466970	     -0.00420101	    -18.01620828	     39.31533074	     26.48361327	     87.39953009	    -13.18699137	     -0.79079362
      3.55932203	      0.50716387	     -3.45302699	    113.72000421	      0.29735706	      0.61303894	      0.87477084	      2.24093899	     -3.74481927	    -13.03807586	     15.60235612	      0.27231249	     33.71382141	      7.65815415	      0.00000000	     -1.25898779	      3.72317947	     -5.62201482	      7.70446830	      0.13446834	     27.09527656	     10.04735602	      0.00000000	      0.02905641	     -0.13304357	     -0.84880386	      0.05396067	     -0.17694795	     -0.90185411	      0.04773678	     -0.32348213	     -0.90185411	      0.03320858	     -0.32348213	     -0.74270338	      0.02698179	     -0.27130244	     -0.68965314	      0.01660283	     -0.20608449	     -0.63660290	      0.20754706	     -1.50501545	     -4.72079245	      0.00000000	      0.00000000	     26.36105276	      5.32963293	      7.40629532	      8.57622570	    -11.36973189	    157.09483510	      0.69783084	      7.40553892	      1.54422887	     -2.08484419	      0.15092415	    -17.83008558	     39.63062986	     26.16957049	     87.50553080	    -13.25611478	     -0.97781507
      3.57627119	      0.86833968	     -3.86141361	    114.14793033	      0.29764283	      0.61235533	      0.87727315	      2.86899661	     -3.61701882	    -13.49661581	     15.66540819	      0.27341295	     33.45909672	      7.60436182	      0.00000000	     -0.53246773	      3.54239728	     -5.61960680	      7.67367184	      0.13393084	     27.21825170	     10.68178875	      0.00000000	      0.06009647	     -0.08857154	     -0.95503417	      0.11160516	     -0.11780015	     -1.01472381	      0.09873249	     -0.21535284	     -1.01472381	      0.06868426	     -0.21535284	     -0.83565490	      0.05580558	     -0.18061508	     -0.77596527	      0.03433912	     -0.13719731	     -0.71627563	      0.42926309	     -1.00193895	     -5.31161357	      0.00000000	      0.00000000	     26.56728605	      5.58482287	      9.09201389	      8.59541815	    -11.44564173	    156.64015827	      0.67995311	      7.00485912	     -0.30320734	     -2.57092977	      0.61461479	    -17.49163814	     40.89235785	     25.37884709	     87.48513839	    -13.48244925	     -1.63336648
      3.59322034	      1.01372787	     -4.23173378	    114.22425454	      0.29882328	      0.61188355	      0.87966602	      3.35014772	     -3.62449397	    -13.60282579	     15.52475071	      0.27095802	     33.13016221	      7.70995726	      0.00000000	     -0.01321655	      3.55925930	     -5.67130287	      7.51033640	      0.13108010	     27.03247005	     10.82232637	      0.00000000	      0.06372151	     -0.07997006	     -1.00879432	      0.11833721	     -0.10636018	     -1.07184396	      0.10468807	     -0.19443920	     -1.07184396	      0.07282731	     -0.19443920	     -0.88269503	      0.05917179	     -0.16307494	     -0.81964538	      0.03641047	     -0.12387362	     -0.75659574	      0.45515637	     -0.90463727	     -5.61061136	      0.00000000	      0.00000000	     27.04502041	      5.53680724	      9.51342633	      8.93332178	    -11.30476355	    156.50140045	      0.65817499	      6.90870671	     -0.54311165	     -2.75704481	      0.86120562	    -17.40003000	     41.25760475	     25.12963081	     87.46552678	    -13.44476480	     -1.66605064
